Input #0, mov,mp4,m4a,3gp,3g2,mj2, from '/home/hbattu/projects/huberman-gpt/huberman-audio/mp3/tmp6g_f8v58.mp4':
  Metadata:
    major_brand     : dash
    minor_version   : 0
    compatible_brands: iso6mp41
    creation_time   : 2023-04-01T00:24:26.000000Z
  Duration: 01:58:48.94, start: 0.000000, bitrate: 129 kb/s
    Stream #0:0(eng): Audio: aac (LC) (mp4a / 0x6134706D), 44100 Hz, stereo, fltp, 0 kb/s (default)
    Metadata:
      creation_time   : 2023-04-01T00:24:26.000000Z
      handler_name    : ISO Media file produced by Google Inc.
Stream mapping:
  Stream #0:0 -> #0:0 (aac (native) -> mp3 (libmp3lame))
Press [q] to stop, [?] for help
[graph_0_in_0_0 @ 0x562be74ae140] tb:1/44100 samplefmt:fltp samplerate:44100 chlayout:0x3
Output #0, mp3, to '../huberman-audio/mp3/K-TW2Chpz4k.mp3':
  Metadata:
    major_brand     : dash
    minor_version   : 0
    compatible_brands: iso6mp41
    TSSE            : Lavf58.29.100
    Stream #0:0(eng): Audio: mp3 (libmp3lame), 44100 Hz, stereo, fltp, delay 1105 (default)
    Metadata:
      creation_time   : 2023-04-01T00:24:26.000000Z
      handler_name    : ISO Media file produced by Google Inc.
      encoder         : Lavc58.54.100 libmp3lame
No more output streams to write to, finishing.
size=  111391kB time=01:58:48.94 bitrate= 128.0kbits/s speed=92.2x    
[AVIOContext @ 0x562be739e900] Statistics: 0 seeks, 155 writeouts
video:0kB audio:111390kB subtitle:0kB other streams:0kB global headers:0kB muxing overhead: 0.000303%
Input file #0 (/home/hbattu/projects/huberman-gpt/huberman-audio/mp3/tmp6g_f8v58.mp4):
  Input stream #0:0 (audio): 307018 packets read (114063160 bytes); 307018 frames decoded (314386432 samples); 
  Total: 307018 packets (114063160 bytes) demuxed
Output file #0 (../huberman-audio/mp3/K-TW2Chpz4k.mp3):
  Output stream #0:0 (audio): 272905 frames encoded (314386432 samples); 272906 packets muxed (114063569 bytes); 
  Total: 272906 packets (114063569 bytes) muxed
[AVIOContext @ 0x562be73c6780] Statistics: 2 seeks, 437 writeouts
[AVIOContext @ 0x562be73a7880] Statistics: 115374720 bytes read, 0 seeks
